<svg width="18" height="18" viewBox="0 0 18 18" fill="none" xmlns="http://www.w3.org/2000/svg">
<path fill-rule="evenodd" clip-rule="evenodd" d="M5 0C2.23858 0 0 2.23858 0 5V13C0 15.7614 2.23858 18 5 18H8.55V11.25H6.525V8.55H8.55V6.525C8.55 5.62989 8.90558 4.77145 9.53851 4.13851C10.1714 3.50558 11.0299 3.15 11.925 3.15H13.95V5.85H11.925C11.746 5.85 11.5743 5.92112 11.4477 6.0477C11.3211 6.17429 11.25 6.34598 11.25 6.525V8.55H13.95L13.275 11.25H11.25V18H13C15.7614 18 18 15.7614 18 13V5C18 2.23858 15.7614 0 13 0H5Z" fill="#C8FEC8"/>
</svg>
