<svg width="15" height="15" viewBox="0 0 15 15" fill="none" xmlns="http://www.w3.org/2000/svg">
<path fill-rule="evenodd" clip-rule="evenodd" d="M7.5 14.375C7.5 14.375 13.125 10.625 13.125 6.25C13.125 4.75816 12.5324 3.32742 11.4775 2.27252C10.4226 1.21763 8.99184 0.625 7.5 0.625C6.00816 0.625 4.57742 1.21763 3.52252 2.27252C2.46763 3.32742 1.875 4.75816 1.875 6.25C1.875 10.625 7.5 14.375 7.5 14.375ZM9.375 6.25C9.375 7.28553 8.53553 8.125 7.5 8.125C6.46447 8.125 5.625 7.28553 5.625 6.25C5.625 5.21447 6.46447 4.375 7.5 4.375C8.53553 4.375 9.375 5.21447 9.375 6.25Z" fill="#828282"/>
</svg>
